g Marrows_SmallRockMesh
v -0.3476788 1.144913 -0.08546602
v -0.3476788 1.144913 0.1043078
v -0.3554843 1.059641 0.3731099
v -0.4078155 -0.353142 0.4505447
v -0.4078155 -0.3531573 -0.2131996
v -0.4078155 -0.175467 -0.3908899
v 0.4502608 -0.3785381 -0.3887008
v 0.02549796 -0.3785381 -0.388787
v -0.3815781 -0.3785381 -0.2074919
v 0.4059728 1.089553 -0.3380636
v 0.4586719 0.6544131 -0.3908516
v 0.4586688 0.6544385 0.4242206
v 0.4189316 0.9825515 0.3845274
v 0.3992589 1.144991 0.2000503
v 0.3992589 1.144991 -0.2751049
v -0.06469791 0.371848 0.6848385
v 0.1537929 0.3954511 0.6908503
v 0.1399819 -0.2742065 0.6929941
v -0.2575367 -0.2823954 0.6936787
v -0.2580269 0.2344638 0.6891494
v -0.2690585 -0.314658 0.6687769
v 0.1447663 -0.3073441 0.6682281
v 0.1912036 -0.3785381 0.4505447
v -0.3815286 -0.3785381 0.4505447
v -0.3825488 0.4928011 -0.4159395
v -0.3825591 -0.1696537 -0.4159395
v 0.02676785 -0.3519512 -0.4159395
v 0.4305648 0.6490384 -0.4159395
v 0.4586688 -0.3518877 -0.4159395
v 0.6880668 0.4802806 -0.4159395
v 0.6880668 -0.2197186 -0.4159395
v 0.6370102 0.3501851 0.5325773
v 0.1498545 0.4174705 0.6738677
v 0.4385753 0.6418225 0.4622372
v 0.688718 0.4869601 0.337522
v 0.5859823 -0.3032879 0.5344791
v 0.6858672 -0.3785381 0.3178886
v 0.1912036 -0.3785381 0.4505447
v 0.1447663 -0.3073441 0.6682281
v 0.3961443 1.001248 0.4013776
v 0.4385753 0.6418225 0.4622372
v -0.3833756 0.4926422 0.4505447
v -0.003928911 1.144991 0.3911349
v -0.2349309 1.162563 0.3774386
v -0.3308945 1.065438 0.397683
v 0.7130668 -0.2149929 -0.3909395
v 0.7130668 -0.3529926 -0.03811831
v 0.7130668 -0.3529707 0.3104353
v 0.7130668 0.4610153 0.305371
v 0.7130668 0.4610896 -0.3909395
v 0.6309309 0.3108018 0.5541749
v 0.5795784 -0.2689288 0.5596516
v 0.1399819 -0.2742065 0.6929941
v 0.1537929 0.3954511 0.6908503
v -0.3554843 1.059641 0.3731099
v -0.4078155 0.4705541 0.4295912
v -0.4078155 0.4879462 -0.3908879
v -0.3699454 0.90166 -0.3530158
v -0.3476788 1.144913 -0.08546602
v 0.6921484 0.5016363 0.290777
v 0.4586688 0.6544385 0.4242206
v 0.4586719 0.6544131 -0.3908516
v 0.6921484 0.5016363 -0.3909395
v -0.3203999 1.169809 -0.08480652
v -0.0766825 1.169809 -0.3285239
v 0.3169684 1.169809 -0.3285239
v 0.3712532 1.169809 -0.2742392
v 0.3738211 1.166105 0.2137622
v -0.3203999 1.169809 0.1041818
v -0.2349309 1.162563 0.3774386
v 0.03652269 1.166072 0.3684614
v -0.2885914 0.373884 0.6316212
v -0.3833756 0.4926422 0.4505447
v 0.4385753 0.6418225 0.4622372
v 0.1498545 0.4174705 0.6738677
v -0.06469791 0.371848 0.6848385
v -0.4078155 -0.175467 -0.3908899
v -0.4078155 0.4705541 0.4295912
v -0.4078155 -0.353142 0.4505447
v -0.4078155 0.4879462 -0.3908879
v 0.6602612 0.3204401 0.5226326
v 0.7130668 0.4610153 0.305371
v 0.7130668 -0.3529707 0.3104353
v 0.6139635 -0.2763276 0.5299435
v 0.6859518 -0.3785381 -0.04155133
v 0.4502608 -0.3785381 -0.3887008
v 0.1912036 -0.3785381 0.4505447
v 0.6858672 -0.3785381 0.3178886
v -0.3825488 0.4928011 -0.4159395
v 0.4305648 0.6490384 -0.4159395
v 0.3769439 1.092942 -0.3628331
v 0.3178341 1.144991 -0.3565297
v -0.077342 1.144913 -0.3558028
v -0.3451243 0.9014486 -0.3780888
v -0.3815781 -0.3785381 -0.2074919
v 0.1912036 -0.3785381 0.4505447
v 0.4502608 -0.3785381 -0.3887008
v -0.3815286 -0.3785381 0.4505447
v 0.4586688 0.6544385 -0.1739774
v 0.4586719 0.6544131 -0.3908516
v 0.4586688 0.6544385 0.4242206
v 0.1498545 0.4174705 0.6738677
v 0.4385753 0.6418225 0.4622372
v -0.2939536 -0.2889898 0.6715489
v -0.4078155 -0.353142 0.4505447
v -0.4078155 0.4705541 0.4295912
v -0.2947001 0.2422146 0.6667633
v -0.3249304 0.3550707 0.6086268
v -0.3833756 0.4926422 0.4505447
v -0.4078155 0.4705541 0.4295912
v -0.3554843 1.059641 0.3731099
v -0.3249304 0.3550707 0.6086268
v -0.2885914 0.373884 0.6316212
v -0.3308945 1.065438 0.397683
v -0.2947001 0.2422146 0.6667633
v -0.3143297 1.136419 0.31704
v -0.2349309 1.162563 0.3774386
v -0.3476788 1.144913 0.1043078
v -0.3203999 1.169809 0.1041818
v -0.3203999 1.169809 -0.08480652
v -0.3476788 1.144913 -0.08546602
v -0.2580269 0.2344638 0.6891494
v -0.06469791 0.371848 0.6848385
v -0.2939536 -0.2889898 0.6715489
v -0.2575367 -0.2823954 0.6936787
v -0.2667601 1.084967 -0.2748841
v -0.0766825 1.169809 -0.3285239
v -0.3699454 0.90166 -0.3530158
v -0.077342 1.144913 -0.3558028
v 0.3169684 1.169809 -0.3285239
v -0.3451243 0.9014486 -0.3780888
v -0.3825488 0.4928011 -0.4159395
v -0.4078155 0.4879462 -0.3908879
v -0.3825591 -0.1696537 -0.4159395
v 0.3178341 1.144991 -0.3565297
v -0.4078155 -0.175467 -0.3908899
v 0.3755653 1.147885 -0.3328361
v 0.3712532 1.169809 -0.2742392
v 0.3769439 1.092942 -0.3628331
v -0.2752714 -0.3116703 -0.3490717
v -0.4078155 -0.3531573 -0.2131996
v 0.02676785 -0.3519512 -0.4159395
v 0.3992589 1.144991 -0.2751049
v 0.3738211 1.166105 0.2137622
v 0.4059728 1.089553 -0.3380636
v 0.4586719 0.6544131 -0.3908516
v 0.4305648 0.6490384 -0.4159395
v 0.6880668 0.4802806 -0.4159395
v 0.3992589 1.144991 0.2000503
v 0.6921484 0.5016363 -0.3909395
v 0.3961443 1.001248 0.4013776
v 0.4189316 0.9825515 0.3845274
v 0.03652269 1.166072 0.3684614
v 0.4586688 0.6544385 0.4242206
v -0.003928911 1.144991 0.3911349
v 0.4385753 0.6418225 0.4622372
v 0.688718 0.4869601 0.337522
v 0.6921484 0.5016363 0.290777
v 0.7130668 0.4610896 -0.3909395
v 0.6880668 -0.2197186 -0.4159395
v 0.7130668 0.4610153 0.305371
v 0.6602612 0.3204401 0.5226326
v 0.7130668 -0.2149929 -0.3909395
v 0.6370102 0.3501851 0.5325773
v 0.6272088 -0.3275056 -0.2983045
v 0.4586688 -0.3518877 -0.4159395
v 0.7130668 -0.3529926 -0.03811831
v 0.6309309 0.3108018 0.5541749
v 0.1498545 0.4174705 0.6738677
v 0.6139635 -0.2763276 0.5299435
v 0.1537929 0.3954511 0.6908503
v 0.5795784 -0.2689288 0.5596516
v 0.4502608 -0.3785381 -0.3887008
v 0.02549796 -0.3785381 -0.388787
v 0.6859518 -0.3785381 -0.04155133
v 0.7130668 -0.3529707 0.3104353
v 0.6858672 -0.3785381 0.3178886
v 0.5859823 -0.3032879 0.5344791
v -0.3815781 -0.3785381 -0.2074919
v -0.4078155 -0.353142 0.4505447
v -0.3815286 -0.3785381 0.4505447
v -0.2690585 -0.314658 0.6687769
v 0.1447663 -0.3073441 0.6682281
v 0.1399819 -0.2742065 0.6929941
vt 0.66587 0.5854707
vt 0.7165291 0.613789
vt 0.8658955 0.7617565
vt 0.7973229 0.3038662
vt 0.7986767 0.3379954
vt 0.7890517 0.3683459
vt 0.9162358 0.3072149
vt 0.8884667 0.2869436
vt 0.8294279 0.1462996
vt 0.9153475 0.6869435
vt 0.881706 0.5826629
vt 0.6898462 0.6613764
vt 0.7228679 0.7334398
vt 0.782495 0.755779
vt 0.9052588 0.7072319
vt 0.2527039 0.394834
vt 0.3099138 0.4171435
vt 0.2846383 0.3712572
vt 0.2443844 0.3633734
vt 0.2302157 0.3786672
vt 0.1890494 0.6633191
vt 0.1256218 0.6550329
vt 0.1124634 0.689798
vt 0.1978495 0.6992689
vt 0.7614286 0.5447595
vt 0.7086849 0.6495346
vt 0.7596101 0.7107673
vt 0.9009038 0.5838861
vt 0.8283216 0.7442517
vt 0.9281085 0.6301038
vt 0.8747889 0.7407554
vt 0.8438499 0.6475069
vt 0.7764817 0.5797715
vt 0.7442787 0.6622906
vt 0.826597 0.702227
vt 0.1350142 0.6659692
vt 0.1147984 0.6996851
vt 0.1953897 0.6906388
vt 0.2085482 0.6558737
vt 0.4261417 0.4861406
vt 0.4391826 0.5540157
vt 0.5998626 0.5320023
vt 0.4876372 0.4240008
vt 0.5433208 0.4107867
vt 0.566759 0.4217315
vt 0.5804044 0.4372252
vt 0.5509177 0.4234498
vt 0.5236818 0.4237435
vt 0.4060827 0.6480677
vt 0.5925202 0.6817539
vt 0.3491989 0.4229719
vt 0.3951468 0.3507879
vt 0.3163847 0.3516431
vt 0.3200365 0.4119451
vt 0.8658955 0.7617565
vt 0.8658491 0.4905546
vt 0.6678624 0.3990638
vt 0.6281708 0.5038922
vt 0.66587 0.5854707
vt 0.5540638 0.655737
vt 0.5540975 0.6122474
vt 0.4550122 0.6457081
vt 0.4712954 0.6816388
vt 0.4635461 0.1970307
vt 0.4635461 0.1970307
vt 0.4635461 0.1970307
vt 0.4635461 0.1970307
vt 0.4635461 0.1970307
vt 0.4635461 0.1970307
vt 0.4635461 0.1970307
vt 0.4635461 0.1970307
vt 0.1758964 0.4933885
vt 0.1464985 0.5088443
vt 0.2224432 0.5791627
vt 0.220955 0.5234158
vt 0.1971365 0.5025854
vt 0.7890517 0.3683459
vt 0.8155569 0.3299671
vt 0.7973229 0.3038662
vt 0.7990726 0.4713338
vt 0.1269666 0.6894798
vt 0.1489548 0.753598
vt 0.3016827 0.5924067
vt 0.2347132 0.5607073
vt 0.2684053 0.3548861
vt 0.2318218 0.3220897
vt 0.2274429 0.4181916
vt 0.2796296 0.3938462
vt 0.5845319 0.4364135
vt 0.6450319 0.537707
vt 0.6991388 0.508751
vt 0.7028801 0.4984987
vt 0.6841789 0.4465848
vt 0.6401057 0.4223719
vt 0.8294279 0.1462996
vt 0.8788512 0.3537602
vt 0.9162358 0.3072149
vt 0.840689 0.334787
vt 0.8146455 0.7235667
vt -593.3301 -19302.31
vt 0.8101717 0.04112017
vt 0.815868 -0.003581371
vt 0.8103144 0.01128114
vt 0.6644483 0.08987373
vt 0.6592291 0.105029
vt 0.8254004 0.2718076
vt 0.7904491 0.1072694
vt 0.8156835 0.1226664
vt 0.1928599 0.182266
vt 0.1928599 0.182266
vt 0.19286 0.182266
vt 0.19286 0.182266
vt 0.19286 0.182266
vt 0.1928599 0.182266
vt 0.19286 0.182266
vt 0.1928599 0.182266
vt 0.1928599 0.182266
vt 0.1928599 0.182266
vt 0.1928599 0.182266
vt 0.1928599 0.182266
vt 0.1928599 0.182266
vt 0.1928599 0.182266
vt 0.1928599 0.182266
vt 0.1928599 0.182266
vt 0.1928599 0.182266
vt 0.1928599 0.182266
vt 0.1928599 0.182266
vt 0.1928599 0.182266
vt 0.1928599 0.182266
vt 0.1928599 0.182266
vt 0.1928599 0.182266
vt 0.1928599 0.182266
vt 0.1928599 0.182266
vt 0.1928599 0.182266
vt 0.1928599 0.182266
vt 0.1928599 0.182266
vt 0.1928599 0.182266
vt 0.1928599 0.182266
vt 0.1928599 0.182266
vt 0.1928599 0.182266
vt 0.1928599 0.182266
vt 0.1928599 0.182266
vt 0.1928599 0.182266
vt 0.1928599 0.182266
vt 0.1928599 0.182266
vt 0.1928599 0.182266
vt 0.1928599 0.182266
vt 0.1928599 0.182266
vt 0.1928599 0.182266
vt 0.1928599 0.182266
vt 0.1928599 0.182266
vt 0.1928599 0.182266
vt 0.1928599 0.182266
vt 0.1928599 0.182266
vt 0.19286 0.182266
vt 0.1928599 0.182266
vt 0.1928599 0.182266
vt 0.1928599 0.182266
vt 0.1928599 0.182266
vt 0.1928599 0.182266
vt 0.1928599 0.182266
vt 0.1928599 0.182266
vt 0.1928599 0.182266
vt 0.1928599 0.182266
vt 0.19286 0.182266
vt 0.1928599 0.182266
vt 0.1928599 0.182266
vt 0.1928599 0.182266
vt 0.1928599 0.182266
vt 0.19286 0.182266
vt 0.1928599 0.182266
vt 0.1928599 0.182266
vt 0.1928599 0.182266
vt 0.1928599 0.182266
vt 0.1928599 0.182266
vt 0.1928599 0.182266
vt 0.19286 0.182266
vt 0.1928599 0.182266
vt 0.1928599 0.182266
vt 0.1928599 0.182266
vt 0.1928599 0.182266
vt 0.1928599 0.182266
vt 0.1928599 0.182266
vt 0.1928599 0.182266
vn -0.8546588 0.4883372 -0.1763092
vn -0.8858454 0.4619666 0.04318443
vn -0.868478 0.3326567 0.3675398
vn -0.8904634 -0.3826822 0.2462302
vn -0.8428494 -0.4644111 -0.2718957
vn -0.8444879 -0.2733576 -0.4605604
vn 0.1695323 -0.9011002 -0.3990953
vn -0.0816998 -0.9083113 -0.4102386
vn -0.3923817 -0.8831869 -0.2569388
vn 0.8752685 0.2516332 -0.4130203
vn 0.7243209 0.5330243 -0.4373149
vn 0.5316827 0.7871627 0.3125517
vn 0.9045158 0.2668563 0.3326243
vn 0.8665925 0.4830578 0.1251897
vn 0.866163 0.4898013 -0.09927869
vn -0.100714 0.4413103 0.8916848
vn 0.1383753 0.3045844 0.9423803
vn 0.133338 -0.2983855 0.9450857
vn -0.2201959 -0.2721395 0.9367251
vn -0.2792827 0.1152106 0.9532722
vn -0.2423882 -0.7655584 0.59596
vn 0.1030652 -0.7884778 0.6063665
vn 0.035402 -0.9831073 0.1795736
vn -0.3907075 -0.8946108 0.2168393
vn -0.3906727 0.06204496 -0.9184363
vn -0.3972679 -0.2566357 -0.8810882
vn -0.07895373 -0.4163153 -0.9057858
vn 0.2246792 0.1792672 -0.9578009
vn 0.1834852 -0.4644812 -0.8663663
vn 0.4587719 0.2713811 -0.8460973
vn 0.4392951 -0.3504534 -0.8271652
vn 0.5660478 0.4285263 0.7042408
vn -0.01220773 0.7007238 0.7133282
vn 0.1035217 0.700969 0.7056385
vn 0.7034359 0.5216028 0.4828129
vn 0.3668401 -0.7208316 0.5880733
vn 0.4147923 -0.8807661 0.22847
vn 0.035402 -0.9831073 0.1795736
vn 0.1030652 -0.7884778 0.6063665
vn 0.4393597 0.4322182 0.7874964
vn 0.1035217 0.700969 0.7056385
vn -0.5139488 0.3594284 0.7788888
vn 0.02575831 0.4389899 0.8981226
vn -0.1819539 0.7529326 0.6324439
vn -0.4338365 0.3528984 0.8290046
vn 0.8627781 -0.3190478 -0.3922024
vn 0.8998355 -0.4271502 -0.08853693
vn 0.9003851 -0.3869562 0.1989258
vn 0.9465405 0.2616376 0.1886977
vn 0.9228109 0.1895857 -0.3353762
vn 0.4972833 0.1703593 0.850698
vn 0.4444564 -0.2630176 0.8563179
vn 0.133338 -0.2983855 0.9450857
vn 0.1383753 0.3045844 0.9423803
vn -0.868478 0.3326567 0.3675398
vn -0.9408943 0.1252796 0.3146792
vn -0.9206597 0.0559409 -0.3863371
vn -0.8658591 0.2935943 -0.4050808
vn -0.8546588 0.4883372 -0.1763092
vn 0.7442192 0.6569943 0.1203996
vn 0.5316827 0.7871627 0.3125517
vn 0.7243209 0.5330243 -0.4373149
vn 0.6938595 0.6576634 -0.2933223
vn -0.4035564 0.8983655 -0.1734411
vn -0.1761862 0.8997003 -0.3993717
vn 0.09998004 0.9220076 -0.3740401
vn 0.3710509 0.9236293 -0.09607405
vn 0.4060299 0.8745941 0.2649998
vn -0.3753835 0.9257324 0.04590055
vn -0.1819539 0.7529326 0.6324439
vn 0.1030008 0.8770179 0.4692872
vn -0.3922913 0.5111934 0.7647148
vn -0.5139488 0.3594284 0.7788888
vn 0.1035217 0.700969 0.7056385
vn -0.01220773 0.7007238 0.7133282
vn -0.100714 0.4413103 0.8916848
vn -0.8444879 -0.2733576 -0.4605604
vn -0.9408943 0.1252796 0.3146792
vn -0.8904634 -0.3826822 0.2462302
vn -0.9206597 0.0559409 -0.3863371
vn 0.8390141 0.1254355 0.5294539
vn 0.9465405 0.2616376 0.1886977
vn 0.9003851 -0.3869562 0.1989258
vn 0.7741199 -0.2737879 0.5707703
vn 0.4088963 -0.9064509 -0.1055964
vn 0.1695323 -0.9011002 -0.3990953
vn 0.035402 -0.9831073 0.1795736
vn 0.4147923 -0.8807661 0.22847
vn -0.3906727 0.06204496 -0.9184363
vn 0.2246792 0.1792672 -0.9578009
vn 0.3571097 0.2498639 -0.9000226
vn 0.09433365 0.4796947 -0.8723498
vn -0.1816495 0.4946531 -0.8498951
vn -0.4141114 0.2982005 -0.859993
vn -0.3923817 -0.8831869 -0.2569388
vn 0.035402 -0.9831073 0.1795736
vn 0.1695323 -0.9011002 -0.3990953
vn -0.3907075 -0.8946108 0.2168393
vn -0.6105399 0.7919775 -0.003570766
vn 0.7243209 0.5330243 -0.4373149
vn 0.5316827 0.7871627 0.3125517
vn -0.01220773 0.7007238 0.7133282
vn 0.1035217 0.700969 0.7056385
vn -0.68648 -0.2773022 0.6721969
vn -0.8904634 -0.3826822 0.2462302
vn -0.9408943 0.1252796 0.3146792
vn -0.7005379 0.09531148 0.7072216
vn -0.7820814 0.1951694 0.5918256
vn -0.5139488 0.3594284 0.7788888
vn -0.9408943 0.1252796 0.3146792
vn -0.868478 0.3326567 0.3675398
vn -0.7820814 0.1951694 0.5918256
vn -0.3922913 0.5111934 0.7647148
vn -0.4338365 0.3528984 0.8290046
vn -0.7005379 0.09531148 0.7072216
vn -0.6288508 0.736523 0.2491598
vn -0.1819539 0.7529326 0.6324439
vn -0.8858454 0.4619666 0.04318443
vn -0.3753835 0.9257324 0.04590055
vn -0.4035564 0.8983655 -0.1734411
vn -0.8546588 0.4883372 -0.1763092
vn -0.2792827 0.1152106 0.9532722
vn -0.100714 0.4413103 0.8916848
vn -0.68648 -0.2773022 0.6721969
vn -0.2201959 -0.2721395 0.9367251
vn -0.5429586 0.6406184 -0.5429586
vn -0.1761862 0.8997003 -0.3993717
vn -0.8658591 0.2935943 -0.4050808
vn -0.1816495 0.4946531 -0.8498951
vn 0.09998004 0.9220076 -0.3740401
vn -0.4141114 0.2982005 -0.859993
vn -0.3906727 0.06204496 -0.9184363
vn -0.9206597 0.0559409 -0.3863371
vn -0.3972679 -0.2566357 -0.8810882
vn 0.09433365 0.4796947 -0.8723498
vn -0.8444879 -0.2733576 -0.4605604
vn 0.5344902 0.6544322 -0.5348259
vn 0.3710509 0.9236293 -0.09607405
vn 0.3571097 0.2498639 -0.9000226
vn -0.3115359 -0.6719324 -0.6719019
vn -0.8428494 -0.4644111 -0.2718957
vn -0.07895373 -0.4163153 -0.9057858
vn 0.866163 0.4898013 -0.09927869
vn 0.4060299 0.8745941 0.2649998
vn 0.8752685 0.2516332 -0.4130203
vn 0.7243209 0.5330243 -0.4373149
vn 0.2246792 0.1792672 -0.9578009
vn 0.4587719 0.2713811 -0.8460973
vn 0.8665925 0.4830578 0.1251897
vn 0.6938595 0.6576634 -0.2933223
vn 0.4393597 0.4322182 0.7874964
vn 0.9045158 0.2668563 0.3326243
vn 0.1030008 0.8770179 0.4692872
vn 0.5316827 0.7871627 0.3125517
vn 0.02575831 0.4389899 0.8981226
vn 0.1035217 0.700969 0.7056385
vn 0.7034359 0.5216028 0.4828129
vn 0.7442192 0.6569943 0.1203996
vn 0.9228109 0.1895857 -0.3353762
vn 0.4392951 -0.3504534 -0.8271652
vn 0.9465405 0.2616376 0.1886977
vn 0.8390141 0.1254355 0.5294539
vn 0.8627781 -0.3190478 -0.3922024
vn 0.5660478 0.4285263 0.7042408
vn 0.5019196 -0.7958504 -0.3386721
vn 0.1834852 -0.4644812 -0.8663663
vn 0.8998355 -0.4271502 -0.08853693
vn 0.4972833 0.1703593 0.850698
vn -0.01220773 0.7007238 0.7133282
vn 0.7741199 -0.2737879 0.5707703
vn 0.1383753 0.3045844 0.9423803
vn 0.4444564 -0.2630176 0.8563179
vn 0.1695323 -0.9011002 -0.3990953
vn -0.0816998 -0.9083113 -0.4102386
vn 0.4088963 -0.9064509 -0.1055964
vn 0.9003851 -0.3869562 0.1989258
vn 0.4147923 -0.8807661 0.22847
vn 0.3668401 -0.7208316 0.5880733
vn -0.3923817 -0.8831869 -0.2569388
vn -0.8904634 -0.3826822 0.2462302
vn -0.3907075 -0.8946108 0.2168393
vn -0.2423882 -0.7655584 0.59596
vn 0.1030652 -0.7884778 0.6063665
vn 0.133338 -0.2983855 0.9450857
g Marrows_SmallRockMesh_0
f 3/3/3 2/2/2 1/1/1
f 6/6/6 5/5/5 4/4/4
f 9/9/9 8/8/8 7/7/7
f 12/12/12 11/11/11 10/10/10
f 10/10/10 13/13/13 12/12/12
f 10/10/10 14/14/14 13/13/13
f 10/10/10 15/15/15 14/14/14
f 18/18/18 17/17/17 16/16/16
f 16/16/16 19/19/19 18/18/18
f 16/16/16 20/20/20 19/19/19
f 23/23/23 22/22/22 21/21/21
f 24/24/24 23/23/23 21/21/21
f 27/27/27 26/26/26 25/25/25
f 27/27/27 25/25/25 28/28/28
f 28/28/28 29/29/29 27/27/27
f 29/29/29 28/28/28 30/30/30
f 31/31/31 29/29/29 30/30/30
f 34/34/34 33/33/33 32/32/32
f 35/35/35 34/34/34 32/32/32
f 38/38/38 37/37/37 36/36/36
f 39/39/39 38/38/38 36/36/36
f 42/42/42 41/41/41 40/40/40
f 40/40/40 43/43/43 42/42/42
f 43/43/43 44/44/44 42/42/42
f 44/44/44 45/45/45 42/42/42
f 48/48/48 47/47/47 46/46/46
f 46/46/46 49/49/49 48/48/48
f 46/46/46 50/50/50 49/49/49
f 53/53/53 52/52/52 51/51/51
f 54/54/54 53/53/53 51/51/51
f 57/57/57 56/56/56 55/55/55
f 55/55/55 58/58/58 57/57/57
f 55/55/55 59/59/59 58/58/58
f 62/62/62 61/61/61 60/60/60
f 63/63/63 62/62/62 60/60/60
f 66/66/66 65/65/65 64/64/64
f 64/64/64 67/67/67 66/66/66
f 64/64/64 68/68/68 67/67/67
f 64/64/64 69/69/69 68/68/68
f 69/69/69 70/70/70 68/68/68
f 70/70/70 71/71/71 68/68/68
f 74/74/74 73/73/73 72/72/72
f 72/72/72 75/75/75 74/74/74
f 72/72/72 76/76/76 75/75/75
f 79/79/79 78/78/78 77/77/77
f 78/78/78 80/80/80 77/77/77
f 83/83/83 82/82/82 81/81/81
f 84/84/84 83/83/83 81/81/81
f 87/87/87 86/86/86 85/85/85
f 88/88/88 87/87/87 85/85/85
f 91/91/91 90/90/90 89/89/89
f 89/89/89 92/92/92 91/91/91
f 89/89/89 93/93/93 92/92/92
f 89/89/89 94/94/94 93/93/93
f 97/97/97 96/96/96 95/95/95
f 96/96/96 98/98/98 95/95/95
f 101/101/101 100/100/100 99/99/99
f 99/99/99 102/102/102 101/101/101
f 102/102/102 103/103/103 101/101/101
f 106/106/106 105/105/105 104/104/104
f 104/104/104 107/107/107 106/106/106
f 107/107/107 108/108/108 106/106/106
f 111/111/111 110/110/110 109/109/109
f 109/109/109 110/110/110 112/112/112
f 113/113/113 109/109/109 112/112/112
f 114/114/114 111/111/111 109/109/109
f 115/115/115 113/113/113 112/112/112
f 116/116/116 111/111/111 114/114/114
f 117/117/117 116/116/116 114/114/114
f 111/111/111 116/116/116 118/118/118
f 119/119/119 116/116/116 117/117/117
f 118/118/118 116/116/116 119/119/119
f 119/119/119 120/120/120 118/118/118
f 120/120/120 121/121/121 118/118/118
f 122/122/122 113/113/113 115/115/115
f 123/123/123 113/113/113 122/122/122
f 122/122/122 115/115/115 124/124/124
f 125/125/125 122/122/122 124/124/124
f 120/120/120 126/126/126 121/121/121
f 127/127/127 126/126/126 120/120/120
f 121/121/121 126/126/126 128/128/128
f 129/129/129 126/126/126 127/127/127
f 127/127/127 130/130/130 129/129/129
f 131/131/131 126/126/126 129/129/129
f 126/126/126 131/131/131 128/128/128
f 128/128/128 131/131/131 132/132/132
f 133/133/133 128/128/128 132/132/132
f 132/132/132 134/134/134 133/133/133
f 130/130/130 135/135/135 129/129/129
f 134/134/134 136/136/136 133/133/133
f 130/130/130 137/137/137 135/135/135
f 138/138/138 137/137/137 130/130/130
f 135/135/135 137/137/137 139/139/139
f 134/134/134 140/140/140 136/136/136
f 136/136/136 140/140/140 141/141/141
f 142/142/142 140/140/140 134/134/134
f 137/137/137 138/138/138 143/143/143
f 138/138/138 144/144/144 143/143/143
f 145/145/145 137/137/137 143/143/143
f 139/139/139 137/137/137 145/145/145
f 139/139/139 145/145/145 146/146/146
f 147/147/147 139/139/139 146/146/146
f 148/148/148 147/147/147 146/146/146
f 144/144/144 149/149/149 143/143/143
f 150/150/150 148/148/148 146/146/146
f 149/149/149 144/144/144 151/151/151
f 152/152/152 149/149/149 151/151/151
f 153/153/153 151/151/151 144/144/144
f 154/154/154 152/152/152 151/151/151
f 153/153/153 155/155/155 151/151/151
f 155/155/155 153/153/153 117/117/117
f 156/156/156 154/154/154 151/151/151
f 154/154/154 156/156/156 157/157/157
f 158/158/158 154/154/154 157/157/157
f 148/148/148 150/150/150 159/159/159
f 150/150/150 158/158/158 159/159/159
f 148/148/148 159/159/159 160/160/160
f 158/158/158 161/161/161 159/159/159
f 157/157/157 161/161/161 158/158/158
f 162/162/162 161/161/161 157/157/157
f 159/159/159 163/163/163 160/160/160
f 164/164/164 162/162/162 157/157/157
f 163/163/163 165/165/165 160/160/160
f 160/160/160 165/165/165 166/166/166
f 167/167/167 165/165/165 163/163/163
f 164/164/164 168/168/168 162/162/162
f 164/164/164 169/169/169 168/168/168
f 162/162/162 168/168/168 170/170/170
f 169/169/169 171/171/171 168/168/168
f 123/123/123 171/171/171 169/169/169
f 168/168/168 172/172/172 170/170/170
f 173/173/173 166/166/166 165/165/165
f 142/142/142 166/166/166 173/173/173
f 174/174/174 142/142/142 173/173/173
f 140/140/140 142/142/142 174/174/174
f 173/173/173 165/165/165 175/175/175
f 165/165/165 167/167/167 175/175/175
f 175/175/175 167/167/167 176/176/176
f 177/177/177 175/175/175 176/176/176
f 176/176/176 170/170/170 177/177/177
f 170/170/170 178/178/178 177/177/177
f 170/170/170 172/172/172 178/178/178
f 179/179/179 140/140/140 174/174/174
f 141/141/141 140/140/140 179/179/179
f 180/180/180 141/141/141 179/179/179
f 181/181/181 180/180/180 179/179/179
f 180/180/180 181/181/181 124/124/124
f 181/181/181 182/182/182 124/124/124
f 124/124/124 182/182/182 125/125/125
f 183/183/183 178/178/178 172/172/172
f 182/182/182 183/183/183 125/125/125
f 184/184/184 183/183/183 172/172/172
f 183/183/183 184/184/184 125/125/125
